# xmcd
#
# Track frame offsets:
#  150
#  25720
#  48139
#  77733
#  101234
#  127738
#  152702
#  184335
#  216660
#  258260
#  288834
#
# Disc length: 4377 seconds
#
# Revision: 0
# Processed by: cddbd v1.5.2PL0 Copyright (c) Steve Scherf et al.
# Submitted via: Collectorz.com_Music_Collector 6.11
#
DISCID=9211170b
DTITLE=Avenged Sevenfold - City Of Evil
DYEAR=2005
DGENRE=Metal
TTITLE0=Beast And The Harlot
TTITLE1=Burn It Down
TTITLE2=Blinded In Chains
TTITLE3=Bat Country
TTITLE4=Trashed And Scattered
TTITLE5=Seize The Day
TTITLE6=Sidewinder
TTITLE7=The Wicked End
TTITLE8=Strength Of The World
TTITLE9=Betrayed
TTITLE10=M.I.A.
EXTD=
EXTT0=
EXTT1=
EXTT2=
EXTT3=
EXTT4=
EXTT5=
EXTT6=
EXTT7=
EXTT8=
EXTT9=
EXTT10=
PLAYORDER=
